<?xml version="1.0" standalone="no"?><!DOCTYPE svg PUBLIC "-//W3C//DTD SVG 1.1//EN" "http://www.w3.org/Graphics/SVG/1.1/DTD/svg11.dtd"><svg t="1775393479747" class="icon" viewBox="0 0 1024 1024" version="1.1" xmlns="http://www.w3.org/2000/svg" p-id="876" xmlns:xlink="http://www.w3.org/1999/xlink" width="200" height="200"><path d="M801.6 595.2a34.858667 34.858667 0 0 0-44.309333 21.610667c-41.6 120.597333-156.117333 207.125333-290.752 207.146666H242.688a7.893333 7.893333 0 0 1-7.914667-7.936v-84.778666c0-7.957333-2.730667-15.722667-7.722666-21.930667a306.133333 306.133333 0 0 1-67.989334-192.789333c0-101.354667 49.045333-191.338667 124.8-247.402667A306.005333 306.005333 0 0 1 466.56 209.066667a305.664 305.664 0 0 1 150.762667 39.445333A34.88 34.88 0 0 0 651.52 187.733333c-18.986667-10.709333-39.018667-19.84-59.861333-27.178666a376.725333 376.725333 0 0 0-125.141334-21.269334 375.786667 375.786667 0 0 0-224.170666 73.813334 376.746667 376.746667 0 0 0-153.045334 303.445333 375.36 375.36 0 0 0 75.712 226.389333v73.109334a77.674667 77.674667 0 0 0 77.653334 77.717333h223.850666c165.290667 0 305.664-106.346667 356.650667-254.208a34.858667 34.858667 0 0 0-21.589333-44.309333z" p-id="877"></path><path d="M790.101333 198.186667c-15.957333 0.042667-29.866667 10.965333-33.706666 26.453333-7.488 29.866667-20.309333 52.778667-37.717334 70.186667-17.450667 17.472-41.088 30.933333-72.448 39.445333a34.901333 34.901333 0 0 0-0.256 67.264c60.949333 17.066667 96.106667 52.885333 110.464 109.76 3.904 15.424 17.706667 26.304 33.6 26.389333 15.914667 0.085333 29.866667-10.624 33.92-26.005333 14.528-55.210667 49.813333-91.605333 111.338667-110.4A34.901333 34.901333 0 0 0 960 367.616a34.922667 34.922667 0 0 0-25.365333-33.216c-60.8-17.322667-96-53.290667-110.592-110.016l-1.962667-5.589333a34.944 34.944 0 0 0-31.978667-20.629334z m0.469334 118.698666a202.432 202.432 0 0 0 52.608 51.498667 207.722667 207.722667 0 0 0-52.352 51.2 200.618667 200.618667 0 0 0-52.032-51.52A201.6 201.6 0 0 0 768 344.128a197.610667 197.610667 0 0 0 22.592-27.242667zM641.002667 516.48a34.922667 34.922667 0 0 0-69.781334 0 104.661333 104.661333 0 1 1-209.344 0 34.88 34.88 0 0 0-69.738666 0 174.442667 174.442667 0 0 0 348.864 0z" p-id="878"></path></svg>